<svg height="96" width="96" xmlns="http://www.w3.org/2000/svg" xmlns:xlink="http://www.w3.org/1999/xlink"><linearGradient id="a"><stop offset="0" stop-color="#fff"/><stop offset="1" stop-color="#fff" stop-opacity="0"/></linearGradient><filter id="b" color-interpolation-filters="sRGB" height="1.384" width="1.384" x="-.192" y="-.192"><feGaussianBlur stdDeviation="5.28"/></filter><linearGradient id="c" gradientUnits="userSpaceOnUse" x1="48" x2="48" xlink:href="#a" y1="20.220806" y2="138.66119"/><linearGradient id="d" gradientTransform="matrix(1.0058652 0 0 .994169 100 0)" gradientUnits="userSpaceOnUse" x1="45.447727" x2="45.447727" y1="92.539597" y2="7.01654"><stop offset="0"/><stop offset="1" stop-opacity=".588235"/></linearGradient><linearGradient id="e" gradientTransform="matrix(1.0238095 0 0 1.0119048 -1.142857 -98.071429)" gradientUnits="userSpaceOnUse" x1="32.251034" x2="32.251034" xlink:href="#d" y1="6.131708" y2="90.238609"/><linearGradient id="f" gradientTransform="translate(0 -97)" gradientUnits="userSpaceOnUse" x1="32.251034" x2="32.251034" xlink:href="#d" y1="6.131708" y2="90.238609"/><clipPath id="g"><rect height="80" rx="6" width="84" x="6" y="6"/></clipPath><radialGradient id="h" cx="48" cy="87.792389" gradientTransform="matrix(1 -.00000007 .00000008 1.2557894 109.99999 -24.505592)" gradientUnits="userSpaceOnUse" r="42"><stop offset="0" stop-color="#fff" stop-opacity=".717557"/><stop offset="1" stop-color="#fff"/></radialGradient><linearGradient id="i" gradientTransform="matrix(1 0 0 -1 0 92)" gradientUnits="userSpaceOnUse" x1="48" x2="48" xlink:href="#a" y1="88" y2="-40"/><linearGradient id="j" gradientUnits="userSpaceOnUse" spreadMethod="reflect" x1="48" x2="112.12357" xlink:href="#a" y1="82" y2="82.454597"/><linearGradient id="k" gradientUnits="userSpaceOnUse" spreadMethod="reflect" x1="90" x2="48" y1="88" y2="88"><stop offset="0" stop-opacity=".588235"/><stop offset=".11780351" stop-opacity=".470588"/><stop offset=".23809524" stop-opacity=".392157"/><stop offset="1" stop-opacity=".313726"/></linearGradient><linearGradient id="l" gradientTransform="scale(.9219544 1.0846523)" gradientUnits="userSpaceOnUse" x1="11.998966" x2="11.998966" y1=".921954" y2="19.387045"><stop offset="0" stop-opacity=".862745"/><stop offset="1" stop-opacity=".470588"/></linearGradient><linearGradient id="m" gradientUnits="userSpaceOnUse" x1="48" x2="48" y1="90" y2="5.987717"><stop offset="0" stop-color="#bebebe"/><stop offset="1" stop-color="#dcdcdc"/></linearGradient><linearGradient id="n" gradientTransform="matrix(.94249199 0 0 .94249199 -77.239616 -1.124598)" gradientUnits="userSpaceOnUse" x1="56" x2="56" xlink:href="#l" y1="16" y2="80"/><linearGradient id="o" gradientTransform="matrix(1.1350441 0 0 1.1566947 -6.482117 -.562006)" gradientUnits="userSpaceOnUse" x1="56" x2="56" xlink:href="#l" y1="16" y2="80"/><filter id="p" color-interpolation-filters="sRGB" height="1.488889" width="1.471429" x="-.235714" y="-.244444"><feGaussianBlur stdDeviation="5.5"/></filter><clipPath id="q"><path d="m112 6c-3.324 0-6 2.676-6 6v68c0 3.324 2.676 6 6 6h72c3.324 0 6-2.676 6-6v-68c0-3.324-2.676-6-6-6zm36 12c7.92199 0 14.34376 6.062377 14.34375 13.53125-.0316.938654-.1119 1.96423-.1875 3.0625 1.08238.820671 1.21824 3.284897.15625 5.8125-.38331.9123-.88699 1.640144-1.40625 2.28125-.16795.79293-.28375 1.420323-.5 2.34375-.58841 1.783113-2.89786 5.322548-4.65625 8.0625-.11333 1.822252-.0664 3.618647.15625 5.46875 5.49854 4.829865 19.82105 7.460042 19.84375 11.59375l.25 1.84375h-56l.25-1.84375c-.0213-4.829854 14.2457-6.928354 19.8125-11.59375.38805-2.285373.38037-4.272095.1875-6.28125-1.93403-2.604458-4.12476-5.639327-4.65625-7.25-.17157-.793238-.29564-1.328018-.4375-2.03125-.02-.022-.0427-.03992-.0625-.0625-.59432-.675399-1.19378-1.504913-1.625-2.53125-1.1183-2.66163-.94121-5.324875.3125-6-.0881-1.064655-.1058-2.019055-.125-2.875 0-7.468875 6.42176-13.53125 14.34375-13.53125z"/></clipPath><g><g fill="url(#e)"><path d="m12-95.03125c-5.5110903 0-10.03125 4.52016-10.03125 10.03125v71c0 5.5110902 4.5201598 10.03125 10.03125 10.03125h72c5.51109 0 10.03125-4.5201597 10.03125-10.03125v-71c0-5.51109-4.52016-10.03125-10.03125-10.03125z" opacity=".08" transform="scale(1 -1)"/><path d="m12-94.03125c-4.971633 0-9.03125 4.059617-9.03125 9.03125v71c0 4.9716329 4.0596171 9.03125 9.03125 9.03125h72c4.971633 0 9.03125-4.059617 9.03125-9.03125v-71c0-4.971633-4.059617-9.03125-9.03125-9.03125z" opacity=".1" transform="scale(1 -1)"/><path d="m12-93c-4.4091333 0-8 3.590867-8 8v71c0 4.4091333 3.5908667 8 8 8h72c4.409133 0 8-3.5908667 8-8v-71c0-4.409133-3.590867-8-8-8z" opacity=".2" transform="scale(1 -1)"/><rect height="85" opacity=".3" rx="7" transform="scale(1 -1)" width="86" x="5" y="-92"/></g><rect fill="url(#f)" height="84" opacity=".45" rx="6" transform="scale(1 -1)" width="84" x="6" y="-91"/></g><rect fill="url(#m)" height="84" rx="6" width="84" x="6" y="6"/><path d="m120.78125 6.125c-2.73902.5576484-4.78125 2.9665-4.78125 5.875v68c0 3.324 2.676 6 6 6h72c3.324 0 6-2.676 6-6v-68c0-2.9085-2.04223-5.3173516-4.78125-5.875 2.20512.5362071 3.8125 2.4908437 3.8125 4.875v68c0 2.80489-2.22636 5.03125-5.03125 5.03125h-72c-2.80489 0-5.03125-2.22636-5.03125-5.03125v-68c0-2.3841563 1.60738-4.3387929 3.8125-4.875z" fill="url(#h)" opacity=".2"/><path d="m12 86c-3.324 0-6-2.676-6-6v-68c0-3.324 2.676-6 6-6h72c3.324 0 6 2.676 6 6v68c0 3.324-2.676 6-6 6zm0-.96875h72c2.80489 0 5.03125-2.22636 5.03125-5.03125v-68c0-2.80489-2.22636-5.03125-5.03125-5.03125h-72c-2.8048898 0-5.03125 2.22636-5.03125 5.03125v68c0 2.80489 2.2263602 5.03125 5.03125 5.03125z" fill="url(#i)" opacity=".5"/><path d="m6 78v2c0 3.324 2.676 6 6 6h72c3.324 0 6-2.676 6-6v-2c0 3.324-2.676 6-6 6h-72c-3.324 0-6-2.676-6-6z" fill="url(#j)" opacity=".1"/><path d="m6 100v1c0 3.324 2.676 6 6 6h72c3.324 0 6-2.676 6-6v-1c0 3.324-2.676 6-6 6h-72c-3.324 0-6-2.676-6-6z" opacity=".15"/><g><path d="m6 80v4c0 3.324 2.676 6 6 6h72c3.324 0 6-2.676 6-6v-4c0 3.324-2.676 6-6 6h-72c-3.324 0-6-2.676-6-6z" fill="url(#k)"/><path d="m6 82v2c0 3.324 2.676 6 6 6h72c3.324 0 6-2.676 6-6v-2c0 3.324-2.676 6-6 6h-72c-3.324 0-6-2.676-6-6z" opacity=".1"/><path d="m6 83v1c0 3.324 2.676 6 6 6h72c3.324 0 6-2.676 6-6v-1c0 3.324-2.676 6-6 6h-72c-3.324 0-6-2.676-6-6z" opacity=".15"/></g><rect height="62" rx="12" style="opacity:.1;stroke:#fff;stroke-width:.5;stroke-linecap:round;clip-path:url(#g);fill:url(#c);filter:url(#b)" width="66" x="15" y="15"/><g><path clip-path="url(#q)" d="m148 18c-7.92199 0-14.33871 6.069478-14.33871 13.538353.0192.855945.0248 1.811766.1129 2.876421-1.25371.675125-1.41937 3.321324-.30107 5.982954.43122 1.026337 1.02396 1.855851 1.61828 2.53125.0198.02258.0553.0547.0753.0767.14186.703232.24241 1.239432.41398 2.03267.53149 1.610673 2.73263 4.644122 4.66666 7.24858.19287 2.009155.19988 4.004399-.18817 6.289772-5.5668 4.665396-19.81704 6.752532-19.7957 11.582386l-.26347 1.840914h56l-.26344-1.840909c-.0227-4.133708-14.33479-6.752522-19.83333-11.582387-.22263-1.850103-.26387-3.662122-.15054-5.484374 1.75839-2.739952 4.07826-6.270865 4.66667-8.053978.21625-.923427.32129-1.546558.48924-2.339488.51926-.641106 1.00917-1.388836 1.39248-2.301136 1.06199-2.527603.93184-4.970522-.15054-5.791193.0756-1.09827.15655-2.129528.18817-3.068182.00001-7.468873-6.41672-13.538353-14.33871-13.538353z" fill="#fff" filter="url(#p)" transform="translate(-100)"/><path d="m48 18c-7.921994 0-14.33871 6.069478-14.33871 13.538353.01925.855945.0248 1.811766.112904 2.876421-1.253717.675125-1.419374 3.321324-.301075 5.982954.431222 1.026337 1.023957 1.855851 1.618279 2.53125.01981.02258.05532.0547.07527.0767.141865.703232.242412 1.239432.413978 2.03267.531496 1.610673 2.732635 4.644122 4.666667 7.24858.19287 2.009155.199876 4.004399-.188172 6.289772-5.566798 4.665396-19.817037 6.752532-19.795698 11.582386l-.263443 1.840914h56l-.263441-1.840909c-.022707-4.133708-14.334788-6.752522-19.833333-11.582387-.222628-1.850103-.263868-3.662122-.150537-5.484374 1.758395-2.739952 4.078265-6.270865 4.666667-8.053978.216251-.923427.321294-1.546558.489246-2.339488.519253-.641106 1.009167-1.388836 1.392474-2.301136 1.061991-2.527603.93184-4.970522-.150538-5.791193.07563-1.09827.156553-2.129528.188172-3.068182.000011-7.468873-6.416717-13.538353-14.33871-13.538353z" fill="url(#o)"/><path d="m-32.000013 14.000055c-6.578084 0-11.910673 4.933473-11.910673 11.019222.01598.697437.0261 1.493764.09926 2.36126-1.041033.550102-1.176728 2.701364-.24814 4.870099.358069.836275.846451 1.515776 1.339951 2.066101.01645.0184.03308.0312.04963.04913.117798.573005.204935 1.026217.347397 1.672559.441331 1.3124 2.265031 3.781004 3.870968 5.903154.160151 1.637089.173325 3.253913-.148893 5.116069-4.622431 3.801433-16.444509 5.509609-16.42679 9.445046l-1.588084 10.232128c0 2.09638 3.159367 4.015841 8.188586 5.312838l.694789 2.804a1.7295878 1.7144325 0 0 0 1.091813 1.131438c.223226.08562.380762.266676.992554.442732 3.222748.927443 8.129937 1.574169 13.647645 1.574169 5.517709 0 10.474525-.646726 13.697272-1.574169.611792-.176056.769331-.357156.992554-.442732a1.7295878 1.7144325 0 0 0 1.042187-1.082247l.843671-2.951578c4.906344-1.294943 8.039703-3.147592 8.039703-5.214451l-1.588095-10.23212c-.01886-3.368207-11.910674-5.509608-16.47643-9.445053-.18486-1.507492-.193385-2.991749-.09928-4.476547 1.460096-2.232553 3.382384-5.08976 3.870967-6.542667.179567-.752422.257562-1.272434.397022-1.918525.431165-.522382.823158-1.125974 1.141439-1.86933.881833-2.059528.799501-4.053827-.09926-4.722522.0628-.894886.122622-1.744011.148877-2.50884.000009-6.085748-5.332578-11.019219-11.910661-11.019219z" fill="url(#n)"/><path d="m-32 14c-6.578084 0-11.90625 4.945501-11.90625 11.03125.01598.697437.02059 1.476254.09375 2.34375-1.041033.550102-1.178588 2.706265-.25 4.875.358069.836275.85025 1.512175 1.34375 2.0625.01645.0184.04595.04457.0625.0625.117798.573005.201288 1.009908.34375 1.65625.441331 1.3124 2.269063 3.7841 3.875 5.90625.160151 1.637089.165968 3.262844-.15625 5.125-4.622431 3.801433-16.455219 5.502063-16.4375 9.4375l-1.59375 10.25c0 2.09638 3.158281 4.015503 8.1875 5.3125l.71875 2.78125a1.7295878 1.7144325 0 0 0 1.09375 1.125c.223226.08562.356958.292694.96875.46875 3.222748.927443 8.138542 1.5625 13.65625 1.5625 5.517709 0 10.464753-.635057 13.6875-1.5625.611792-.176056.776777-.383174 1-.46875a1.7295878 1.7144325 0 0 0 1.03125-1.0625l.84375-2.96875c4.906344-1.294943 8.0625-3.120641 8.0625-5.1875l-1.59375-10.25c-.01886-3.368207-11.902994-5.502055-16.46875-9.4375-.18486-1.507492-.219105-2.983952-.125-4.46875 1.460096-2.232553 3.386417-5.109593 3.875-6.5625.179567-.752422.26679-1.260159.40625-1.90625.431165-.522382.837969-1.131644 1.15625-1.875.881833-2.059528.773761-4.050055-.125-4.71875.0628-.894886.129995-1.735171.15625-2.5.000009-6.085748-5.328167-11.03125-11.90625-11.03125zm0 1.9375c5.589056 0 9.931987 4.097552 9.96875 9.03125.000156.02098 0 .04149 0 .0625-.02545.688779-.063 1.491583-.125 2.375a1.9260586 1.9260586 0 0 0 .625 1.5625c-.04866-.03591.081.101771.09375.46875.017.489306-.127404 1.265284-.46875 2.0625-.234439.54754-.533235.992182-.875 1.40625a1.9260586 1.9260586 0 0 0 -.375.8125c-.13846.641458-.229377 1.123605-.375 1.75-.140365.390152-.691849 1.41967-1.375 2.53125-.699714 1.13853-1.546271 2.407434-2.28125 3.53125a1.9260586 1.9260586 0 0 0 -.3125.9375c-.101068 1.594663-.0436 3.21399.15625 4.84375a1.9260586 1.9260586 0 0 0 .65625 1.21875c2.778403 2.394839 6.970946 3.82248 10.46875 5.25 1.748902.71376 3.325784 1.389438 4.3125 2 .493358.305281.830394.621172.96875.78125.02661.03078.02025.01685.03125.03125.0028.0078-.0026.02524 0 .03125a1.9260586 1.9260586 0 0 0 .03125.15625l1.5625 9.96875c0 .05314-.146787.540805-1.28125 1.25s-3.007984 1.446016-5.34375 2.0625a1.9260586 1.9260586 0 0 0 -1.34375 1.34375l-.78125 2.78125c-.668375.271611-.489908.32241-.78125.40625-2.94392.847202-7.786312 1.46875-13.15625 1.46875-5.369937 0-10.177899-.620633-13.125-1.46875-.28413-.08176.01006-.09166-.78125-.40625l-.65625-2.59375a1.9260586 1.9260586 0 0 0 -1.40625-1.40625c-2.386591-.615483-4.259795-1.363017-5.40625-2.09375s-1.3125-1.262692-1.3125-1.34375l1.5625-9.96875a1.9260586 1.9260586 0 0 0 .03125-.28125c-.000082-.01817.08294-.37888 1.03125-1 .948312-.62112 2.487742-1.286755 4.21875-1.96875 3.462017-1.36399 7.643678-2.645444 10.46875-4.96875a1.9260586 1.9260586 0 0 0 .6875-1.15625c.354991-2.051555.32799-3.900697.15625-5.65625a1.9260586 1.9260586 0 0 0 -.375-.96875c-.798009-1.054521-1.635807-2.193362-2.3125-3.1875-.66528-.97737-1.15615-1.896071-1.25-2.15625-.0016-.0045-.02988-.02718-.03125-.03125-.106616-.495817-.177182-.900034-.28125-1.40625a1.9260586 1.9260586 0 0 0 -.46875-.9375c-.156701-.169767-.172559-.18931-.03125-.03125-.395143-.440643-.745486-.936828-1-1.53125-.359852-.840442-.496566-1.682848-.46875-2.1875.01391-.252326.05994-.355372.0625-.375a1.9260586 1.9260586 0 0 0 .78125-1.71875c-.06469-.767115-.04649-1.475745-.0625-2.1875 0-.0105-.000039-.02075 0-.03125.01844-4.947692 4.367811-9.0625 9.96875-9.0625z" opacity=".1"/><path d="m-32 14c-6.578084 0-11.90625 4.945501-11.90625 11.03125.01598.697437.02059 1.476254.09375 2.34375-1.041033.550102-1.178588 2.706265-.25 4.875.358069.836275.85025 1.512175 1.34375 2.0625.01645.0184.04595.04457.0625.0625.117798.573005.201288 1.009908.34375 1.65625.441331 1.3124 2.269063 3.7841 3.875 5.90625.160151 1.637089.165968 3.262844-.15625 5.125-4.622431 3.801433-16.455219 5.502063-16.4375 9.4375l-1.59375 10.25c0 2.09638 3.158281 4.015503 8.1875 5.3125l.71875 2.78125a1.7295878 1.7144325 0 0 0 1.09375 1.125c.223226.08562.356958.292694.96875.46875 3.222748.927443 8.138542 1.5625 13.65625 1.5625 5.517709 0 10.464753-.635057 13.6875-1.5625.611792-.176056.776777-.383174 1-.46875a1.7295878 1.7144325 0 0 0 1.03125-1.0625l.84375-2.96875c4.906344-1.294943 8.0625-3.120641 8.0625-5.1875l-1.59375-10.25c-.01886-3.368207-11.902994-5.502055-16.46875-9.4375-.18486-1.507492-.219105-2.983952-.125-4.46875 1.460096-2.232553 3.386417-5.109593 3.875-6.5625.179567-.752422.26679-1.260159.40625-1.90625.431165-.522382.837969-1.131644 1.15625-1.875.881833-2.059528.773761-4.050055-.125-4.71875.0628-.894886.129995-1.735171.15625-2.5.000009-6.085748-5.328167-11.03125-11.90625-11.03125zm0 1.0625c6.039419 0 10.825314 4.479735 10.84375 9.9375.000036.01053 0 .02072 0 .03125-.02575.723069-.0938 1.54758-.15625 2.4375a1.0515944 1.0515944 0 0 0 .4375.90625c.0647.04813.289992.383332.3125 1.03125.02251.647918-.144697 1.534703-.53125 2.4375-.272505.636444-.617646 1.161756-1 1.625a1.0515944 1.0515944 0 0 0 -.21875.4375c-.136962.634517-.219439 1.116441-.375 1.78125-.0084.03588-.02241.05671-.03125.09375-.196607.546091-.748278 1.566042-1.4375 2.6875-.711269 1.157332-1.54851 2.442107-2.28125 3.5625a1.0515944 1.0515944 0 0 0 -.1875.5c-.09791 1.544782-.0368 3.082002.15625 4.65625a1.0515944 1.0515944 0 0 0 .34375.65625c2.553426 2.200921 6.699922 3.6889 10.21875 5.125 1.759414.71805 3.359339 1.426603 4.4375 2.09375.539081.333574.959556.642518 1.1875.90625s.249372.419065.25.53125a1.0515944 1.0515944 0 0 0 .03125.15625l1.5625 10.09375c0 .498211-.43142 1.214778-1.6875 2s-3.20468 1.525697-5.59375 2.15625a1.0515944 1.0515944 0 0 0 -.71875.75l-.8125 2.90625-.03125.03125c-.0095.02386-.0015.03464 0 .03125.0015-.0034-.0204-.02329-.03125 0-.0217.04658.02427.01721 0 .0625s-.0045-.01261-.03125.03125c-.02676.04386-.0021-.01105-.03125.03125-.03147.04061.0024-.0075-.03125.03125-.03367.03879.0045-.0056-.03125.03125-.03578.03686.0065-.0036-.03125.03125-.03776.03481.0084-.0014-.03125.03125-.01982.01633-.01013.03132 0 .03125-.04138.03042.01175-.02808-.03125 0s.01323.0056-.03125.03125-.01667.0081-.0625.03125.01579-.02059-.03125 0 .01685-.01796-.03125 0a1.0515944 1.0515944 0 0 0 0 .03125c-.591024.226578-.456797.30816-.90625.4375-3.070512.883633-7.969221 1.5-13.40625 1.5-5.437028 0-10.302751-.615868-13.375-1.5-.440352-.126721-.253603-.199159-.875-.4375a1.0515944 1.0515944 0 0 0 -.03125-.03125c-.05173-.01761.01936.02062-.03125 0s-.01318-.0077-.0625-.03125c-.04932-.02356.0166.02642-.03125 0s.01496-.0021-.03125-.03125c-.04621-.02919.01317.000613-.03125-.03125-.04442-.03186.01121.0032-.03125-.03125-.02123-.01721-.03379-.0089-.03125 0-.04036-.03688.0069.008-.03125-.03125-.03811-.0392.0045.01014-.03125-.03125.0086.0028.01661-.0095 0-.03125-.03322-.04344-.000663.01408-.03125-.03125-.03059-.04533-.0034.01582-.03125-.03125s.025.01739 0-.03125-.0092.0188-.03125-.03125c-.01103-.02502-.0015-.0349 0-.03125v-.03125c-.01905-.05127-.01528.02107-.03125-.03125l-.6875-2.71875a1.0515944 1.0515944 0 0 0 -.78125-.78125c-2.444714-.630473-4.386408-1.409372-5.65625-2.21875s-1.71875-1.542347-1.71875-2.0625l1.5625-10.09375a1.0515944 1.0515944 0 0 0 .03125-.15625c-.0021-.456611.384425-1.029013 1.4375-1.71875s2.627699-1.374086 4.375-2.0625c3.494601-1.376828 7.626978-2.712307 10.21875-4.84375a1.0515944 1.0515944 0 0 0 .375-.625c.340111-1.965565.322728-3.704481.15625-5.40625a1.0515944 1.0515944 0 0 0 -.1875-.53125c-.800261-1.057497-1.650645-2.200501-2.34375-3.21875s-1.230547-1.976685-1.375-2.40625c-.121357-.55822-.202286-.995134-.3125-1.53125a1.0515944 1.0515944 0 0 0 -.25-.5c-.02327-.02521-.04683-.0175-.0625-.03125-.439799-.49044-.85472-1.077023-1.15625-1.78125-.407271-.951189-.568432-1.919185-.53125-2.59375.03718-.674565.27681-.918641.3125-.9375a1.0515944 1.0515944 0 0 0 .5625-1.03125c-.0681-.807473-.07798-1.547924-.09375-2.25 0-.01053-.000036-.02072 0-.03125.01844-5.457768 4.80433-9.9375 10.84375-9.9375z" opacity=".15"/><path d="m-32 14c-6.578084 0-11.90625 4.945501-11.90625 11.03125.0048.209345.02565.429835.03125.65625.198701-5.92469 5.422785-10.6875 11.875-10.6875 6.383903 0 11.57293 4.663117 11.875 10.5.0071-.149119.02633-.325307.03125-.46875.000009-6.085748-5.328167-11.03125-11.90625-11.03125zm-11.875 13.40625c-.609597.370124-.873775 1.329002-.78125 2.5.09528-.722115.387821-1.290328.84375-1.53125-.02837-.336398-.04907-.655372-.0625-.96875zm23.6875.1875c-.0211.320759-.03894.601831-.0625.9375.407828.303432.629688.893433.6875 1.625.13658-1.15474-.0914-2.105822-.625-2.5625zm-18.1875 17.15625c-.02908.735547-.0793 1.506579-.21875 2.3125-4.622431 3.801433-16.455219 5.502063-16.4375 9.4375l-1.59375 10.25c0 .173606.0199.329073.0625.5l1.53125-9.75c-.01772-3.935437 11.815069-5.636067 16.4375-9.4375.203424-1.175624.23527-2.265609.21875-3.3125zm12.78125.40625c-.0082.963601.03649 1.929609.15625 2.90625 4.565756 3.935445 16.44989 6.069293 16.46875 9.4375l1.53125 9.75c.0422-.168029.0625-.328838.0625-.5l-1.59375-10.25c-.01886-3.368207-11.902994-5.502055-16.46875-9.4375-.07832-.638679-.135628-1.274104-.15625-1.90625z" opacity=".5"/><path d="m-20.125 25.5c-.03069.645974-.07398 1.304199-.125 2.03125.02247.01672.04105.04415.0625.0625.03516-.534376.07734-1.084556.09375-1.5625 0-.179647-.02206-.353709-.03125-.53125zm-23.75.1875c-.0039.115578-.03125.227302-.03125.34375.0098.426984.01005.880246.03125 1.375.0193-.01172.04253-.0207.0625-.03125-.0512-.607106-.04943-1.159609-.0625-1.6875zm-.78125 4.28125c-.106491.91862.0832 2.088843.59375 3.28125.358069.836275.85025 1.512175 1.34375 2.0625.01645.0184.04595.04457.0625.0625.117798.573005.201288 1.009908.34375 1.65625.441331 1.3124 2.269063 3.7841 3.875 5.90625.05904.603555.05285 1.201144.0625 1.8125.03812-.964003.02834-1.883926-.0625-2.8125-1.605937-2.12215-3.433669-4.59385-3.875-5.90625-.142462-.646342-.225952-1.083245-.34375-1.65625-.01655-.01793-.04605-.0441-.0625-.0625-.4935-.550325-.985681-1.226225-1.34375-2.0625-.338697-.791032-.530521-1.571715-.59375-2.28125zm25.09375.1875c-.07751.65529-.251229 1.366774-.5625 2.09375-.318281.743356-.725085 1.352618-1.15625 1.875-.13946.646091-.226683 1.153828-.40625 1.90625-.488583 1.452907-2.414904 4.329947-3.875 6.5625-.0212.334536.0099.665247 0 1 1.460096-2.232553 3.386417-5.109593 3.875-6.5625.179567-.752422.26679-1.260159.40625-1.90625.431165-.522382.837969-1.131644 1.15625-1.875.481686-1.124982.632092-2.213108.5625-3.09375zm-37 37.09375-.0625.5c0 2.09638 3.158281 4.015503 8.1875 5.3125l.71875 2.78125a1.7295878 1.7144325 0 0 0 1.09375 1.125c.223226.08562.356958.292694.96875.46875 3.222748.927443 8.138542 1.5625 13.65625 1.5625 5.517709 0 10.464753-.635057 13.6875-1.5625.611792-.176056.776777-.383174 1-.46875a1.7295878 1.7144325 0 0 0 1.03125-1.0625l.84375-2.96875c4.906344-1.294943 8.0625-3.120641 8.0625-5.1875l-.0625-.5c-.467429 1.860996-3.499963 3.499794-8 4.6875l-.84375 2.96875a1.7295878 1.7144325 0 0 1 -1.03125 1.0625c-.223223.08558-.388208.292694-1 .46875-3.222747.927443-8.169791 1.5625-13.6875 1.5625-5.517708 0-10.433502-.635057-13.65625-1.5625-.611792-.176056-.745524-.38313-.96875-.46875a1.7295878 1.7144325 0 0 1 -1.09375-1.125l-.71875-2.78125c-4.612737-1.189589-7.653174-2.919405-8.125-4.8125z" fill="#fff" opacity=".5"/><path d="m48 18c-7.921994 0-14.34375 6.062375-14.34375 13.53125.01925.855945.0369 1.810345.125 2.875-1.253717.675125-1.430799 3.33837-.3125 6 .431222 1.026337 1.030678 1.855851 1.625 2.53125.01981.02258.04255.0405.0625.0625.141865.703232.265934 1.238012.4375 2.03125.531496 1.610673 2.722218 4.645542 4.65625 7.25.19287 2.009155.200548 3.995877-.1875 6.28125-5.566798 4.665396-19.833839 6.763896-19.8125 11.59375l-.25 1.84375h56l-.25-1.84375c-.022707-4.133708-14.345205-6.763885-19.84375-11.59375-.222628-1.850103-.269581-3.646498-.15625-5.46875 1.758395-2.739952 4.067848-6.279387 4.65625-8.0625.216251-.923427.332048-1.55082.5-2.34375.519253-.641106 1.022943-1.36895 1.40625-2.28125 1.061991-2.527603.926128-4.991829-.15625-5.8125.07563-1.09827.155881-2.123846.1875-3.0625.000011-7.468873-6.421757-13.53125-14.34375-13.53125zm0 2.875c6.447383 0 11.450617 4.813909 11.46875 10.625-.00032.0089.00033.02228 0 .03125-.03051.828575-.113139 1.79516-.1875 2.875a2.8677534 2.8677534 0 0 0 .8125 2.15625 2.8677534 2.8677534 0 0 0 0 .03125c.0076.01889.08514.131046.09375.375.01858.52635-.146074 1.395757-.53125 2.3125-.246791.587382-.54675 1.072719-.96875 1.59375a2.8677534 2.8677534 0 0 0 -.59375 1.21875c-.156653.739587-.243034 1.31132-.40625 2.03125-.0029.01282-.0283.01831-.03125.03125-.132855.386157-.770228 1.690859-1.59375 3.0625-.833588 1.388407-1.834484 2.934626-2.71875 4.3125a2.8677534 2.8677534 0 0 0 -.46875 1.375c-.123624 1.987751-.05572 3.978786.1875 6a2.8677534 2.8677534 0 0 0 .9375 1.8125c3.48284 3.05929 8.580181 4.813531 12.78125 6.5625 1.585774.660182 2.738908 1.259761 3.84375 1.84375h-46c1.100556-.670763 2.619007-1.400517 4.5-2.15625 4.151954-1.668144 9.235781-3.24738 12.78125-6.21875a2.8677534 2.8677534 0 0 0 .96875-1.71875c.435005-2.561923.42811-4.85032.21875-7.03125a2.8677534 2.8677534 0 0 0 -.53125-1.4375c-.958142-1.290278-1.97826-2.668825-2.78125-3.875-.784023-1.177685-1.348467-2.260297-1.4375-2.5-.142301-.651357-.258293-1.171476-.375-1.75a2.8677534 2.8677534 0 0 0 -.6875-1.375c-.227824-.251235-.232866-.261058-.03125-.03125-.456821-.519141-.847656-1.089903-1.125-1.75-.405914-.966104-.561616-1.931413-.53125-2.46875.01197-.211774.05986-.21393.0625-.21875a2.8677534 2.8677534 0 0 0 .96875-2.4375c-.07725-.933451-.07482-1.779749-.09375-2.625-.00045-.0201.000452-.04242 0-.0625.036194-5.796946 5.033071-10.59375 11.46875-10.59375z" opacity=".05"/><path d="m62.3125 32.0625c-.03891.801765-.09374 1.623468-.15625 2.53125.02239.01698.04092.04415.0625.0625.05117-.731815.103063-1.473784.125-2.125 0-.159122-.02547-.310944-.03125-.46875zm-28.625.21875c-.0017.08483-.03125.164799-.03125.25.01303.579511.03216 1.232395.0625 1.90625.01956-.01184.04238-.02042.0625-.03125-.06406-.77417-.07998-1.462479-.09375-2.125zm-.9375 5.21875c-.09401 1.107054.130321 2.505747.71875 3.90625.431222 1.026337 1.030678 1.855851 1.625 2.53125.01981.02258.04255.0405.0625.0625.141865.703232.265934 1.238012.4375 2.03125.531496 1.610673 2.722218 4.645542 4.65625 7.25.0733.763575.116874 1.536254.125 2.3125.03713-1.124384-.02088-2.227845-.125-3.3125-1.934032-2.604458-4.124754-5.639327-4.65625-7.25-.171566-.793238-.295635-1.328018-.4375-2.03125-.01995-.022-.04269-.03992-.0625-.0625-.594322-.675399-1.193778-1.504913-1.625-2.53125-.419362-.998111-.65017-2.015608-.71875-2.90625zm30.25.15625c-.07561.842951-.289253 1.802149-.6875 2.75-.383307.9123-.886997 1.640144-1.40625 2.28125-.167952.79293-.283749 1.420323-.5 2.34375-.588402 1.783113-2.897855 5.322548-4.65625 8.0625-.04942.794587-.07408 1.580299-.0625 2.375.0086-.455039.03417-.919437.0625-1.375 1.758395-2.739952 4.067848-6.279387 4.65625-8.0625.216251-.923427.332048-1.55082.5-2.34375.519253-.641106 1.022943-1.36895 1.40625-2.28125.569905-1.356408.767145-2.679984.6875-3.75zm-42.875 34.34375-.125 1h56l-.125-1z" fill="#fff" opacity=".3"/><path d="m48 18c-7.921994 0-14.34375 6.062375-14.34375 13.53125.01925.855945.0369 1.810345.125 2.875-1.253717.675125-1.430799 3.33837-.3125 6 .431222 1.026337 1.030678 1.855851 1.625 2.53125.01981.02258.04255.0405.0625.0625.141865.703232.265934 1.238012.4375 2.03125.531496 1.610673 2.722218 4.645542 4.65625 7.25.19287 2.009155.200548 3.995877-.1875 6.28125-5.566798 4.665396-19.833839 6.763896-19.8125 11.59375l-.25 1.84375h56l-.25-1.84375c-.022707-4.133708-14.345205-6.763885-19.84375-11.59375-.222628-1.850103-.269581-3.646498-.15625-5.46875 1.758395-2.739952 4.067848-6.279387 4.65625-8.0625.216251-.923427.332048-1.55082.5-2.34375.519253-.641106 1.022943-1.36895 1.40625-2.28125 1.061991-2.527603.926128-4.991829-.15625-5.8125.07563-1.09827.155881-2.123846.1875-3.0625.000011-7.468873-6.421757-13.53125-14.34375-13.53125zm0 2c6.877907 0 12.307581 5.175633 12.34375 11.46875.000121.02109 0 .04139 0 .0625-.03078.861134-.112656 1.85065-.1875 2.9375a2.0015608 2.0015608 0 0 0 .71875 1.6875c-.0067.03079.138254.271354.15625.78125.02399.679862-.13328 1.66593-.5625 2.6875-.288025.685522-.673625 1.255201-1.125 1.8125a2.0015608 2.0015608 0 0 0 -.40625.84375c-.161774.763764-.256645 1.337134-.4375 2.125-.173514.525824-.842699 1.874166-1.6875 3.28125s-1.867265 2.937012-2.75 4.3125a2.0015608 2.0015608 0 0 0 -.3125.96875c-.120515 1.937763-.08075 3.874219.15625 5.84375a2.0015608 2.0015608 0 0 0 .6875 1.25c3.261269 2.864665 8.309125 4.648515 12.53125 6.40625 2.111063.878867 3.996621 1.728959 5.21875 2.5.611065.38552 1.047578.761343 1.25 1 .0365.04304.009.0013.03125.03125h-51.21875c.05074-.252566.193877-.670062 1.25-1.375 1.181598-.78869 3.063964-1.628125 5.15625-2.46875 4.184572-1.681249 9.215961-3.284038 12.53125-6.0625a2.0015608 2.0015608 0 0 0 .6875-1.1875c.420822-2.478392.423129-4.683454.21875-6.8125a2.0015608 2.0015608 0 0 0 -.40625-1c-.960822-1.293888-1.962287-2.676082-2.78125-3.90625-.801045-1.203253-1.386402-2.310872-1.53125-2.71875-.157441-.723921-.278778-1.243114-.40625-1.875a2.0015608 2.0015608 0 0 0 -.5-.9375c-.165037-.181995-.165985-.184825-.03125-.03125-.498353-.566338-.957428-1.229281-1.28125-2-.452198-1.076263-.633429-2.141627-.59375-2.84375.02976-.526592.177298-.699433.125-.6875a2.0015608 2.0015608 0 0 0 .9375-1.84375c-.08088-.977363-.10587-1.865672-.125-2.71875 0-.01056-.00003-.0207 0-.03125.018131-6.307412 5.454318-11.5 12.34375-11.5z" opacity=".1"/><path d="m48 18c-7.921994 0-14.34375 6.062375-14.34375 13.53125.01925.855945.0369 1.810345.125 2.875-1.253717.675125-1.430799 3.33837-.3125 6 .431222 1.026337 1.030678 1.855851 1.625 2.53125.01981.02258.04255.0405.0625.0625.141865.703232.265934 1.238012.4375 2.03125.531496 1.610673 2.722218 4.645542 4.65625 7.25.19287 2.009155.200548 3.995877-.1875 6.28125-5.566798 4.665396-19.833839 6.763896-19.8125 11.59375l-.25 1.84375h56l-.25-1.84375c-.022707-4.133708-14.345205-6.763885-19.84375-11.59375-.222628-1.850103-.269581-3.646498-.15625-5.46875 1.758395-2.739952 4.067848-6.279387 4.65625-8.0625.216251-.923427.332048-1.55082.5-2.34375.519253-.641106 1.022943-1.36895 1.40625-2.28125 1.061991-2.527603.926128-4.991829-.15625-5.8125.07563-1.09827.155881-2.123846.1875-3.0625.000011-7.468873-6.421757-13.53125-14.34375-13.53125zm0 1.0625c7.3754 0 13.263019 5.584417 13.28125 12.4375.000028.01062 0 .02063 0 .03125-.03115.897638-.08098 1.906998-.15625 3a1.049094 1.049094 0 0 0 .40625.90625c.155237.117703.438798.620086.46875 1.46875.02995.848664-.178599 1.956911-.65625 3.09375-.333366.793437-.766324 1.43407-1.25 2.03125a1.049094 1.049094 0 0 0 -.21875.4375c-.163844.773535-.273914 1.376683-.46875 2.21875-.0084.03648-.02248.05631-.03125.09375-.248092.71296-.914338 1.983138-1.75 3.375-.857132 1.427621-1.868948 3.002135-2.75 4.375a1.049094 1.049094 0 0 0 -.1875.5c-.117096 1.882795-.04266 3.74355.1875 5.65625a1.049094 1.049094 0 0 0 .34375.65625c3.017629 2.650654 8.004721 4.482626 12.25 6.25 2.122639.883687 4.053076 1.728499 5.375 2.5625.660962.417 1.170146.835443 1.46875 1.1875s.373824.598346.375.8125a1.049094 1.049094 0 0 0 .03125.15625l.09375.625h-53.625l.09375-.625a1.049094 1.049094 0 0 0 .03125-.15625c-.0031-.690703.516735-1.447606 1.8125-2.3125s3.202281-1.71467 5.3125-2.5625c4.220438-1.695659 9.250317-3.33991 12.3125-5.90625a1.049094 1.049094 0 0 0 .34375-.625c.405226-2.386542.386402-4.490505.1875-6.5625a1.049094 1.049094 0 0 0 -.1875-.53125c-.96377-1.297857-1.975974-2.7122-2.8125-3.96875s-1.494711-2.415763-1.6875-3c-.156714-.720555-.276046-1.260824-.40625-1.90625a1.049094 1.049094 0 0 0 -.25-.5c-.024-.02647-.04736-.01791-.0625-.03125-.544021-.618236-1.06257-1.357642-1.4375-2.25-.503092-1.197395-.706169-2.397927-.65625-3.28125.04992-.883323.361964-1.300668.5-1.375a1.049094 1.049094 0 0 0 .53125-1.03125c-.08386-1.013404-.07467-1.930201-.09375-2.78125 0-.01062-.000028-.02063 0-.03125.018241-6.853087 5.905849-12.4375 13.28125-12.4375z" opacity=".2"/><path d="m48 18c-7.921994 0-14.34375 6.062375-14.34375 13.53125.0053.23354.02608.501408.03125.75.144095-7.35151 6.480876-13.28125 14.3125-13.28125 7.753218 0 14.047105 5.81318 14.3125 13.0625.0082-.168242.02577-.368446.03125-.53125.000011-7.468873-6.421757-13.53125-14.34375-13.53125zm-14.28125 16.4375c-.736524.445924-1.072508 1.60015-.96875 3.03125.08935-.981234.44357-1.746035 1.03125-2.0625-.02845-.343838-.04803-.647313-.0625-.96875zm28.5.21875c-.02258.323014-.03934.601183-.0625.9375.484737.367533.762529 1.088591.84375 1.96875.0994-1.312871-.166649-2.383428-.78125-2.90625zm-21.84375 20.9375c-.03165.958362-.133942 1.917151-.3125 2.96875-5.566798 4.665396-19.833839 6.763896-19.8125 11.59375l-.25 1.84375h.125l.125-.84375c-.02134-4.829854 14.245702-6.928354 19.8125-11.59375.240571-1.416822.325755-2.702501.3125-3.96875zm15.3125.21875c-.0094 1.249009.06602 2.480743.21875 3.75 5.498545 4.829865 19.821043 7.460042 19.84375 11.59375l.125.84375h.125l-.25-1.84375c-.022707-4.133708-14.345205-6.763885-19.84375-11.59375-.111314-.925051-.194778-1.837951-.21875-2.75z" opacity=".3"/></g></svg>